<svg id="7d96802a-e001-4d22-92e7-61466bbcc10f" data-name="Capa 1" xmlns="http://www.w3.org/2000/svg" viewBox="0 0 792.36 244.33"><defs><style>.\37 204f893-6ab8-4b3e-9dcc-1d3fc968d733{fill:#f4c55c;}.\36 2665429-6b2f-41b0-8554-aea540ba5eb9{fill:#ff7f40;}.\33 9a46feb-135a-4a5d-a1f1-c519eb23005e,.\35 011642a-b762-45cc-9cc9-adc8347bd951,.\36 2665429-6b2f-41b0-8554-aea540ba5eb9{opacity:0.75;isolation:isolate;}.\35 011642a-b762-45cc-9cc9-adc8347bd951{fill:#f2517e;}.\33 9a46feb-135a-4a5d-a1f1-c519eb23005e{fill:#37b2ef;}.d58bea7d-429a-4f65-9095-9dbba55c41fa{fill:#0a2240;}</style></defs><title>CiudadesAbiertas-logo</title><g id="7758405b-031f-43aa-aca8-148b3e247792" data-name="Group 2914"><g id="2cc41378-3f47-4e56-99f8-290332d01e7a" data-name="Group 2570"><path id="eee3d71f-a432-4a6c-be3f-ec8912935f67" data-name="Subtraction 19" class="7204f893-6ab8-4b3e-9dcc-1d3fc968d733" d="M276.86,245.61h-.46c.2-1.28.75-4.77,1.4-9.6,1.44-10.8,2.22-19.59,2.62-25.06a233.07,233.07,0,0,0,.52-29.19,96.65,96.65,0,0,0-1.51-12.92,38.92,38.92,0,0,0-3.21-10.09c-3.29-6.48-8.86-9.77-16.55-9.77a37.48,37.48,0,0,0-10,1.53,63.56,63.56,0,0,0-9.06,3.36,76.47,76.47,0,0,0-9.1,4.88v23.34s-5.31-1.8-12.85-3.58c-4.41-1-8.71-1.88-12.77-2.47a97.69,97.69,0,0,0-14.09-1.12c-10.85,0-18.71,2.41-23.36,7.17l0,0c0-19.86,0-31.4,0-36.3,0-1.66-1-3.38-2.87-5.1a27.51,27.51,0,0,0-7.38-4.59,57.58,57.58,0,0,0-22.53-4.57,43.41,43.41,0,0,0-17.1,3.2,28.25,28.25,0,0,0-13.2,11.06c-3.09,4.94-5.18,12.23-6.23,21.65-2.16-.46-4.38-.91-6.58-1.32-7.36-1.38-18.16-3-27.82-3-10.85,0-18.07,2-21.45,6-1.3,1.61-2.11,6.69-2.41,15.08-.24,6.72-.15,15.57.27,26.3.49,12.61,1.31,24.89,1.76,31.09h0a71.78,71.78,0,0,1-15.85-19.91A86.41,86.41,0,0,1,18.62,198c-3.17-15.45-3.11-33.38.18-53.28A240.69,240.69,0,0,1,24.85,118c2.34-8.22,5.14-16.58,8.31-24.83A255.09,255.09,0,0,1,51.42,54.85c5.27-8.77,19-16.07,39.67-21.12,18.72-4.56,42.53-7.08,67-7.08s48,2.5,66.54,7a113.32,113.32,0,0,1,24.9,8.81c7.05,3.65,12.05,7.81,14.86,12.37,4.87,7.91,9.83,21.25,14.33,38.58a455,455,0,0,1,10.38,54.8c2.58,19.94,3.77,38.67,3.45,54.15a149.68,149.68,0,0,1-1.82,21.56c-1.09,6.42-2.66,11.49-4.66,15.08C283.66,243.39,280.55,245.61,276.86,245.61ZM94.45,237.22h-7V224.31h7v12.91Zm-13.41,0h-7V224.31h7v12.91Zm-13.41,0H60.69V224.31h7v12.91Zm-13.41,0H47.27V224.31h7v12.91Zm168.37-.5H211.66V225.3h10.93v11.42Zm-17.88,0H193.79V225.3h10.92v11.42Zm-17.88,0H175.9V225.3h10.93v11.42Zm85.92-14.9H258.84V208.91h13.91v12.91Zm-21.36,0h-13.9V208.91h13.9v12.91Zm-28.8-2.49H211.66V207.92h10.93v11.42Zm-17.88,0H193.79V207.92h10.92v11.42Zm-17.87,0H175.9V207.92h10.93v11.42Zm-92.38-5h-7V201.46h7v12.91Zm-13.41,0h-7V201.46h7v12.91Zm-13.41,0h-7V201.46h7v12.91Zm-13.41,0h-7V201.46h7v12.91Zm102.31-2H140.15V199.47h16.39v12.92Zm-26.32,0h-16.4V199.47h16.39v12.92ZM222.59,202H211.66V190.53h10.93Zm-17.88,0H193.79V190.53h10.92V202Zm-17.88,0H175.9V190.53h10.93V202Zm85.92-3H258.84V186.06h13.91V199Zm-21.36,0h-13.9V186.06h13.9V199ZM94.45,191.53h-7V178.61h7v12.92Zm-13.41,0h-7V178.61h7v12.92Zm-13.41,0H60.69V178.61h7v12.92Zm-13.41,0H47.27V178.61h7v12.92Zm102.31-2H140.14V176.63h16.39v12.91Zm-26.32,0H113.82V176.63h16.39v12.91Zm142.53-13.41h-13.9V163.22h13.91v12.91Zm-21.35,0h-13.9V163.22h13.9v12.91Zm-94.86-9.44H140.14V153.78h16.39v12.91Zm-26.32,0H113.82V153.78h16.39v12.91Z" transform="translate(-3.9 -5.67)"/><path id="0706ade4-5818-45d8-9229-b2c56b5454b5" data-name="Path 173" class="62665429-6b2f-41b0-8554-aea540ba5eb9" d="M8.72,123.53c-10-16.52-2.47-42.73,13.47-57,15.92-17.61,52.22-12.32,74.19,2.4a58.4,58.4,0,0,1,11.18,13.48C112,90,111,116.2,111.29,125.06c.1,3.54,22.25,19,20.22,21.67-1.58,2.1-29.32-14.78-32.06-13.2C75.83,147.2,16.66,136.67,8.72,123.53Z" transform="translate(-3.9 -5.67)"/><path id="b225011a-43c1-4757-914e-c3f56f082497" data-name="Path 174" class="5011642a-b762-45cc-9cc9-adc8347bd951" d="M315.81,125.27c6.66-13.9,4.66-40.92-8.71-51.24-13.6-13-62.08-9.4-78.18,3.9C219.1,89,225,105.26,225.59,116.42c.16,2.83-34.5,30.24-32.74,32.24.83.94,40-19.77,40-19.77s11.58,7.13,12.47,7.56a32.82,32.82,0,0,0,6.41,2.21C273.16,143.88,311,135.26,315.81,125.27Z" transform="translate(-3.9 -5.67)"/><path id="53b9a70b-d2d1-4a80-98a9-583e09820034" data-name="Path 175" class="39a46feb-135a-4a5d-a1f1-c519eb23005e" d="M99.32,97.51C87.49,85.4,72.71,27.33,94,16.24c21.48-13.57,74.7-13.51,102-3,16.84,9.12,3.92,77.92,3.62,88.32-.07,2.64,35.46,49.06,32.7,51.11-2.16,1.61-52.18-49.33-55.79-48.07C145.41,115.36,108.73,107.13,99.32,97.51Z" transform="translate(-3.9 -5.67)"/><path id="27ffa7a5-791f-48f7-9a54-f47670f1e478" data-name="Path 3027" class="d58bea7d-429a-4f65-9095-9dbba55c41fa" d="M8.14,241.52H792a4.24,4.24,0,1,1,0,8.48H8.14a4.24,4.24,0,0,1-4.24-4.24h0a4.24,4.24,0,0,1,4.24-4.24Z" transform="translate(-3.9 -5.67)"/><path id="dc925196-02da-4888-b02e-5527dafd5b3b" data-name="Path 3025" class="d58bea7d-429a-4f65-9095-9dbba55c41fa" d="M390.11,106.28c8.88,0,16.53-3.09,21.74-9l-5.29-5.13a21.21,21.21,0,0,1-16,6.84c-12.86,0-22.38-9.28-22.38-21.9s9.52-21.89,22.38-21.89a21.09,21.09,0,0,1,16,6.76l5.29-5.13C406.64,51,399,48,390.2,48,372.86,48,360,60.3,360,77.14S372.86,106.28,390.11,106.28Zm33.37-.65h8.14v-57h-8.14Zm48.84.65c15.06,0,24.09-8.71,24.09-25.23V48.66h-7.89V80.72c0,12.62-5.86,18.32-16.12,18.32s-16-5.7-16-18.32V48.66h-8.14V81.05C448.23,97.57,457.35,106.28,472.32,106.28Zm38.33-.65h24c18.32,0,30.77-11.56,30.77-28.49S553,48.66,534.66,48.66h-24Zm8.14-7.08V55.74h15.39c14.08,0,23.11,8.62,23.11,21.4s-9,21.41-23.11,21.41Zm100.85,7.08h8.54l-25.88-57h-8.06l-25.8,57h8.38l6.27-14.24h30.28Zm-33.7-20.76L598.23,57l12.29,27.92Zm50.71,20.76h24c18.31,0,30.76-11.56,30.76-28.49S679,48.66,660.66,48.66h-24Zm8.14-7.08V55.74h15.38c14.08,0,23.11,8.62,23.11,21.4s-9,21.41-23.11,21.41Zm66.41,0V80.15h28.57V73.24H711.2V55.74h32.07V48.66H703.06v57h41.35V98.55Zm63,7.73c15.06,0,22.06-7.49,22.06-16.2,0-20.92-34.51-12.21-34.51-26.13,0-5,4.15-9,13.84-9a29.35,29.35,0,0,1,15.62,4.64l2.69-6.51c-4.72-3.26-11.64-5-18.31-5-15,0-21.82,7.49-21.82,16.28,0,21.16,34.51,12.37,34.51,26.29,0,5-4.23,8.79-14.08,8.79-7.32,0-14.57-2.77-18.8-6.59l-3,6.34c4.55,4.24,13.1,7.17,21.81,7.17Z" transform="translate(-3.9 -5.67)"/><path id="0a348358-eb6f-4ab3-9080-7fbc0ff4df78" data-name="Path 3026" class="d58bea7d-429a-4f65-9095-9dbba55c41fa" d="M417.94,197.59l-5-11.52H390.63l-5,11.52H373l23-53.33h11.53l23,53.33Zm-16.1-37.46-6.71,15.49h13.35ZM467,197.59H443.66V144.26h20.75a29.9,29.9,0,0,1,9.35,1.3,13.29,13.29,0,0,1,5.91,3.51,13.77,13.77,0,0,1,3.59,9.31q0,6.26-4,9.31a14.82,14.82,0,0,1-1.91,1.33c-.36.18-1,.47-1.91.88a14,14,0,0,1,7.9,4.46,12.43,12.43,0,0,1,2.94,8.43,14.38,14.38,0,0,1-3.82,9.85Q478,197.59,467,197.59Zm-11.45-31.74h5.65a19,19,0,0,0,7.36-1.07q2.4-1.07,2.4-4.61t-2.21-4.69q-2.22-1.15-7.48-1.15h-5.72Zm0,21.67h8.17c3.4,0,6-.42,7.66-1.26s2.56-2.49,2.56-5-.9-4.09-2.71-4.88-4.69-1.18-8.66-1.18h-7Zm46-43.26h11.9v53.33h-11.9Zm68.83,0v10.6H543.84v11h23.89V176H543.84v11.06h27.4v10.53h-39.3V144.26ZM632,162q0,12.81-10.15,16.56l13.5,19.07H620.68l-11.83-17h-8.24v17h-11.9V144.26h20.22q12.44,0,17.74,4.2T632,162Zm-22.67,8.32q6.11,0,8.32-2c1.48-1.32,2.21-3.42,2.21-6.3s-.76-4.84-2.29-5.91-4.19-1.6-8-1.6h-8.93v15.8Zm60.2-15.72v43h-11.9v-43H642.5v-10.3h42.12v10.3Zm62.5,43-5-11.52H704.69l-5,11.52H687.07l23-53.33h11.52l23,53.33Zm-16.1-37.46-6.72,15.49h13.36Zm58.6-6.64a7.24,7.24,0,0,0-4.7,1.41,4.59,4.59,0,0,0-1.71,3.74,4.21,4.21,0,0,0,2.1,3.7q2.1,1.38,9.69,3.24t11.79,5.61q4.2,3.75,4.2,10.91a14.44,14.44,0,0,1-5.38,11.64q-5.38,4.47-14.16,4.46-12.66,0-22.81-9.38l7.1-8.7q8.63,7.55,15.94,7.55a8.31,8.31,0,0,0,5.15-1.41,4.51,4.51,0,0,0,1.87-3.81,4.46,4.46,0,0,0-2-3.82q-2-1.41-7.86-2.86-9.32-2.21-13.63-5.76t-4.31-11.14q0-7.59,5.46-11.71T774.89,143a32.61,32.61,0,0,1,10.68,1.83,28.55,28.55,0,0,1,9.31,5.19l-6,8.7q-6.93-5.26-14.34-5.27Z" transform="translate(-3.9 -5.67)"/></g></g></svg>